<?xml version="1.0" encoding="utf-8"?>
<?xml-stylesheet type="text/xsl" href="rss1.xsl"?>
<rss version="2.0" xmlns:atom="http://www.w3.org/2005/Atom" xmlns:content="http://purl.org/rss/1.0/modules/content/" xmlns:dc="http://purl.org/dc/elements/1.1/" xmlns:media="http://search.yahoo.com/mrss/">
<channel>
 <title>Getty</title>
 <link>http://www.gettyimg.com/</link>
 <atom:link href="http://www.gettyimg.com/" rel="self" type="application/rss+xml" />

 
                <item>
                <title><![CDATA[【HD Live Performances】WEB-RiP - BLACKPINK - ‘Pretty Savage’ Live at Coachella 2023 (Youtube 1080p Premium WEB-DL)]]></title>
                <link><![CDATA[https://sharemania.us/threads/blackpink-%E2%80%98pretty-savage%E2%80%99-live-at-coachella-2023-youtube-1080p-premium-web-dl.222915/]]></link>
                <description><![CDATA[<article>
<blockquote class="messageText SelectQuoteContainer ugc baseHtml">
<img src="https://i.ytimg.com/vi/VLpUsmBafMQ/maxresdefault.jpg" class="bbCodeImage LbImage" alt="[​IMG]" data-url="https://i.ytimg.com/vi/VLpUsmBafMQ/maxresdefault.jpg" style=""><br>
<br>
<div class="ToggleTriggerAnchor bbCodeSpoilerContainer">
<button type="button" class="button bbCodeSpoilerButton ToggleTrigger Tooltip JsOnly" data-target="> .SpoilerTarget"><span>Spoiler: <span class="SpoilerTitle">1080p Premium</span></span></button>
<div class="SpoilerTarget bbCodeSpoilerText">General<br>
Complete name : BLACKPINK - ‘Pretty Savage’ Live at Coachella 2023 (Youtube 1080p Premium WEB-DL).mp4<br>
Format : MPEG-4<br>
Format profile : Base Media<br>
Codec ID : isom (isom/iso2/mp41)<br>
File size : 137 MiB<br>
Duration : 3 min 45 s<br>
Overall bit rate mode : Variable<br>
Overall bit rate : 5 086 kb/s<br>
Frame rate : 23.976 FPS<br>
Writing application : Lavf60.3.100<br>
Video<br>
ID : 1<br>
Format : vp09<br>
Codec ID : vp09<br>
Duration : 3 min 45 s<br>
Bit rate : 4 958 kb/s<br>
Width : 1 920 pixels<br>
Height : 1 080 pixels<br>
Display aspect ratio : 16:9<br>
Frame rate mode : Variable<br>
Frame rate : 23.976 FPS<br>
Minimum frame rate : 23.810 FPS<br>
Maximum frame rate : 24.390 FPS<br>
Color space : YUV<br>
Bits/(Pixel*Frame) : 0.100<br>
Stream size : 133 MiB (97%)<br>
Title : ISO Media file produced by Google Inc. Created on: 06/18/2023.<br>
Color range : Limited<br>
Color primaries : BT.709<br>
Transfer characteristics : BT.709<br>
Matrix coefficients : BT.709<br>
Audio<br>
ID : 2<br>
Format : Opus<br>
Codec ID : Opus<br>
Duration : 3 min 45 s<br>
Duration_FirstFrame : 1 ms<br>
Bit rate mode : Variable<br>
Bit rate : 124 kb/s<br>
Sampling rate : 48.0 kHz<br>
Compression mode : Lossy<br>
Stream size : 3.32 MiB (2%)<br>
Language : English<br>
Default : Yes<br>
Alternate group : 1</div>
</div>
<div class="bbCodeBlock bbCodeVfcHH HiddenContent">
<div class="attribution type">Hidden Content:</div>
<blockquote>You must either reply or click 'Like' to see the hidden information contained here.</blockquote>
</div>
<div class="messageTextEndMarker">&nbsp;</div>
</blockquote>
</article>]]></description>
                <author><![CDATA[XXI]]></author>
                </item>

                </channel></rss>